<svg width="86" height="105" viewBox="0 0 86 105" fill="none" xmlns="http://www.w3.org/2000/svg">
<g>
<path class="era-logo--path" d="M8.47009 100.28C8.47009 99.6801 8.05009 99.3701 7.37009 99.3701H5.98009V101.28H7.38009C8.06009 101.28 8.45009 100.92 8.45009 100.39L8.47009 100.28ZM8.47009 104.46L7.11009 102.46H5.98009V104.46H4.59009V98.1101H7.49009C8.98009 98.1101 9.88009 98.9001 9.88009 100.2C9.90285 100.636 9.78223 101.068 9.53666 101.429C9.29108 101.79 8.93405 102.061 8.52009 102.2L10.0701 104.47L8.47009 104.46Z" fill="#250E62"/>
<path class="era-logo--path" d="M12.3999 104.49V98.1499H17.1899V99.3899H13.7899V100.68H16.7799V101.92H13.7899V103.25H17.2299V104.49H12.3999Z" fill="#250E62"/>
<path class="era-logo--path" d="M22.54 99.7799L21.69 101.84H23.38L22.54 99.7799ZM24.47 104.5L23.89 103.08H21.23L20.65 104.5H19.24L21.94 98.1499H23.22L25.92 104.5H24.47Z" fill="#250E62"/>
<path class="era-logo--path" d="M28.1599 104.49V98.1499H29.5599V103.22H32.7199V104.49H28.1599Z" fill="#250E62"/>
<path class="era-logo--path" d="M39.01 104.49V98.1499H43.8V99.3899H40.4V100.68H43.39V101.92H40.4V103.25H43.84V104.49H39.01Z" fill="#250E62"/>
<path class="era-logo--path" d="M48.5999 104.59C47.6104 104.601 46.652 104.245 45.9099 103.59L46.7299 102.59C47.2468 103.072 47.9234 103.346 48.6299 103.36C49.1999 103.36 49.5399 103.14 49.5399 102.77C49.5399 102.41 49.3299 102.23 48.2599 101.96C46.9899 101.63 46.1599 101.28 46.1599 100.02C46.1638 99.7412 46.226 99.4662 46.3424 99.2128C46.4588 98.9594 46.627 98.7331 46.836 98.5486C47.0451 98.364 47.2904 98.2252 47.5563 98.141C47.8222 98.0569 48.1027 98.0293 48.3799 98.06C49.2373 98.0444 50.0728 98.3312 50.7399 98.87L50.0199 99.87C49.5437 99.5154 48.9729 99.31 48.3799 99.28C47.8399 99.28 47.5599 99.53 47.5599 99.84C47.5599 100.26 47.8299 100.4 48.9299 100.68C50.2199 101.01 50.9299 101.48 50.9299 102.58C50.9299 103.84 49.9299 104.58 48.5999 104.58" fill="#250E62"/>
<path class="era-logo--path" d="M56.2799 99.4299V104.49H54.88V99.4299H52.95V98.1499H58.2099V99.4299H56.2799Z" fill="#250E62"/>
<path class="era-logo--path" d="M63.3801 99.7799L62.5401 101.84H64.1801L63.3801 99.7799ZM65.3201 104.5L64.7401 103.08H62.0401L61.4601 104.5H60.05L62.7501 98.1499H64.0201L66.72 104.5H65.3201Z" fill="#250E62"/>
<path class="era-logo--path" d="M71.84 99.4299V104.49H70.44V99.4299H68.51V98.1499H73.77V99.4299H71.84Z" fill="#250E62"/>
<path class="era-logo--path" d="M76.1001 104.49V98.1499H80.8901V99.3899H77.4901V100.68H80.4801V101.92H77.4901V103.25H80.9301V104.49H76.1001Z" fill="#250E62"/>
<path class="era-logo--path" d="M4.59009 83.4399V57.4399H24.2001V62.5199H10.2701V67.7999H22.5201V72.8899H10.2701V78.3499H24.3801V83.4399H4.59009Z" fill="#250E62"/>
<path class="era-logo--path" d="M44.88 66.3899C44.88 68.5799 43.28 70.0699 40.49 70.0699H34.7V62.5999H40.38C43.17 62.5999 44.88 63.8699 44.88 66.3199V66.3899ZM49.51 80.5999L47.3 77.3699L45.1 74.1599C46.7831 73.612 48.2397 72.5266 49.2459 71.0705C50.2522 69.6143 50.7525 67.868 50.67 66.0999V66.0199C50.67 60.6699 47 57.4399 40.87 57.4399H28.98V81.1299C28.98 82.8799 30.4 83.4399 32.15 83.4399H34.7V75.1199H39.2L43.81 82.0099L43.89 82.1299C44.1717 82.5298 44.5444 82.857 44.9772 83.0848C45.4101 83.3125 45.8909 83.4342 46.38 83.4399H51.38L49.51 80.5999Z" fill="#250E62"/>
<path class="era-logo--path" d="M63.7401 72.5399L67.1701 64.1599L70.6001 72.5399H63.7401ZM69.8601 57.4399H64.6301L56.1901 77.2799L54.3801 81.6099L53.6101 83.4399H57.2601C57.8823 83.4392 58.4905 83.2559 59.0095 82.9128C59.5286 82.5698 59.9356 82.082 60.1801 81.5099L61.7501 77.6599H72.6601L75.0201 83.4499H80.9601L69.8601 57.4399Z" fill="#250E62"/>
<path class="era-logo--path" d="M80.9301 88.1899H4.59009V93.3899H80.9301V88.1899Z" fill="#C8102E"/>
<path class="era-logo--path" d="M0 55.01L42.76 35.7V0L0 30.74V55.01Z" fill="#C8102E"/>
<path class="era-logo--path" d="M85.52 55.01L42.76 35.7V0L85.52 30.74V55.01Z" fill="#8A1538"/>
</g>
</svg>
